<?xml version="1.0" standalone="no"?>
<!DOCTYPE svg PUBLIC "-//W3C//DTD SVG 20010904//EN"
 "http://www.w3.org/TR/2001/REC-SVG-20010904/DTD/svg10.dtd">
<svg version="1.0" xmlns="http://www.w3.org/2000/svg"
 width="98.000000pt" height="98.000000pt" viewBox="0 0 98.000000 98.000000"
 preserveAspectRatio="xMidYMid meet">
<metadata>
Created by potrace 1.14, written by Peter Selinger 2001-2017
</metadata>
<g transform="translate(0.000000,98.000000) scale(0.100000,-0.100000)"
fill="#000000" stroke="none">
<path d="M105 875 c-73 -34 -99 -82 -98 -181 0 -90 24 -135 135 -251 82 -85
100 -116 100 -172 0 -58 -58 -88 -102 -53 -22 18 -24 26 -23 116 l0 96 -60 0
-59 0 3 -112 c3 -91 8 -120 24 -148 29 -49 95 -81 164 -79 114 5 174 68 175
188 1 87 -26 141 -125 245 -100 108 -109 122 -109 178 0 53 18 78 56 78 48 0
64 -31 64 -125 0 -96 7 -102 67 -65 83 50 56 233 -42 280 -48 23 -126 26 -170
5z"/>
<path d="M410 557 l0 -323 60 0 c53 1 60 3 61 21 0 11 0 131 0 268 l0 247 47
0 c55 0 68 -7 79 -40 7 -20 9 -324 4 -462 -2 -44 -25 -58 -94 -58 -106 0 -176
-32 -192 -87 l-6 -23 148 0 c135 0 152 2 188 23 74 41 80 66 81 342 2 274 -1
304 -30 348 -37 55 -74 66 -218 67 l-128 0 0 -323z"/>
<path d="M914 870 c-23 -9 -73 -65 -75 -83 -12 -101 -4 -136 34 -152 69 -29
91 4 93 143 1 109 -1 113 -52 92z"/>
<path d="M904 574 c-62 -30 -69 -57 -70 -277 l-1 -197 66 0 66 0 0 245 c0 269
3 261 -61 229z"/>
</g>
</svg>
